<svg width="153" height="64" viewBox="0 0 153 64" fill="none" xmlns="http://www.w3.org/2000/svg">
<path fill-rule="evenodd" clip-rule="evenodd" d="M33.5126 9.2816V7.20316L27.767 9.33873H27.7561V11.4716H27.767L33.5126 13.6072V11.526L30.5664 10.3997L33.5126 9.27888V9.2816Z" fill="#F7DD43"/>
<path fill-rule="evenodd" clip-rule="evenodd" d="M66.7922 13.5037V11.4253L69.7358 10.3072L66.7922 9.18905V7.1106L72.5297 9.24618H72.5433V11.3817H72.5297L66.7922 13.5064V13.5037ZM64.3275 4.16977L60.9541 15H62.9564L66.3298 4.16977H64.3275Z" fill="#F7DD43"/>
<path fill-rule="evenodd" clip-rule="evenodd" d="M41.9543 6.91747C42.5256 7.54317 42.8249 8.3702 42.7895 9.21627V13.8302H40.7872V9.64066C40.8117 9.17274 40.6621 8.7157 40.3683 8.35116C40.0908 8.02742 39.68 7.84787 39.2529 7.86691C37.9987 7.86691 37.3703 8.73746 37.3703 10.4758V13.8302H35.368V6.25639H37.3703V6.93923C38.0069 6.32168 38.8693 5.99251 39.7562 6.03059C40.5832 5.99523 41.383 6.31896 41.9543 6.91747Z" fill="#F7DD43"/>
<path fill-rule="evenodd" clip-rule="evenodd" d="M45.3413 3V13.8302H47.3436V3H45.3413Z" fill="#F7DD43"/>
<path fill-rule="evenodd" clip-rule="evenodd" d="M58.6661 13.8302H56.9958L55.358 9.36862L53.704 13.8302H52.0336L49.2261 6.2428H51.3671L52.945 10.7806L54.5718 6.2428H56.1361L57.7629 10.7942L59.3408 6.2428H61.4818L58.6716 13.8302H58.6661Z" fill="#F7DD43"/>
<path d="M82.0796 17.9981C80.1533 17.9981 78.1295 17.6331 76.5433 16.754V1.24411C78.1046 0.389878 80.1284 2.85548e-05 82.0796 2.85548e-05C84.0307 2.85548e-05 86.0067 0.365035 87.5661 1.24411V7.19505H83.639V3.14558C83.1765 2.95066 82.6147 2.87804 82.0547 2.87804C81.4948 2.87804 80.9807 2.95066 80.4934 3.14558V14.8525C80.9559 15.0475 81.4929 15.1201 82.0547 15.1201C82.6166 15.1201 83.1517 15.0475 83.639 14.8525V10.805H87.5661V16.7559C86.0297 17.6102 84.0059 17.9752 82.0796 18V17.9981Z" fill="#F7DD43"/>
<path d="M94.9313 17.9981C92.8579 17.9981 90.8589 17.5585 89.2728 16.6565V1.3167C90.8341 0.439536 92.8349 0 94.9313 0C97.0277 0 98.9789 0.414693 100.54 1.3167V16.6565C99.0037 17.5585 96.98 17.9732 94.9313 17.9981ZM96.6149 3.19524C96.1525 3.00031 95.5906 2.90285 94.9084 2.90285C94.2262 2.90285 93.6892 3.00031 93.2248 3.19524V14.7799C93.6872 14.9997 94.2491 15.0971 94.9084 15.0971C95.5677 15.0971 96.1276 14.9997 96.6149 14.7799V3.19524Z" fill="#F7DD43"/>
<path d="M107.393 11.4127H106.344V17.7783H102.369V0.219779H107.393C109.784 0.219779 111.588 0.707092 113.002 1.70656V9.92589C111.613 10.9024 109.782 11.4127 107.393 11.4127ZM109.052 3.24303C108.687 2.97548 108.198 2.85318 107.368 2.85318H106.294V8.77927H107.368C108.173 8.77927 108.66 8.65697 109.052 8.41427V3.24303Z" fill="#F7DD43"/>
<path d="M121.317 17.7783V11.4127H118.391V17.7783H114.441V1.29185C115.88 0.437625 117.904 0 119.855 0C121.806 0 123.805 0.439537 125.244 1.29185V17.7783H121.317ZM121.317 3.04809C120.902 2.85316 120.39 2.7557 119.853 2.7557C119.316 2.7557 118.804 2.85316 118.389 3.04809V8.63211H121.315V3.04809H121.317Z" fill="#F7DD43"/>
<path d="M14.4492 47.9248H18.8291C18.7412 49.3604 18.3457 50.6348 17.6426 51.748C16.9492 52.8613 15.9775 53.7305 14.7275 54.3555C13.4873 54.9805 11.9932 55.293 10.2451 55.293C8.87793 55.293 7.65234 55.0586 6.56836 54.5898C5.48438 54.1113 4.55664 53.4277 3.78516 52.5391C3.02344 51.6504 2.44238 50.5762 2.04199 49.3164C1.6416 48.0566 1.44141 46.6455 1.44141 45.083V43.6035C1.44141 42.041 1.64648 40.6299 2.05664 39.3701C2.47656 38.1006 3.07227 37.0215 3.84375 36.1328C4.625 35.2441 5.55762 34.5605 6.6416 34.082C7.72559 33.6035 8.93652 33.3643 10.2744 33.3643C12.0518 33.3643 13.5508 33.6865 14.7715 34.3311C16.002 34.9756 16.9541 35.8643 17.6279 36.9971C18.3115 38.1299 18.7217 39.4189 18.8584 40.8643H14.4639C14.415 40.0049 14.2441 39.2773 13.9512 38.6816C13.6582 38.0762 13.2139 37.6221 12.6182 37.3193C12.0322 37.0068 11.251 36.8506 10.2744 36.8506C9.54199 36.8506 8.90234 36.9873 8.35547 37.2607C7.80859 37.5342 7.34961 37.9492 6.97852 38.5059C6.60742 39.0625 6.3291 39.7656 6.14355 40.6152C5.96777 41.4551 5.87988 42.4414 5.87988 43.5742V45.083C5.87988 46.1865 5.96289 47.1582 6.12891 47.998C6.29492 48.8281 6.54883 49.5312 6.89062 50.1074C7.24219 50.6738 7.69141 51.1035 8.23828 51.3965C8.79492 51.6797 9.46387 51.8213 10.2451 51.8213C11.1631 51.8213 11.9199 51.6748 12.5156 51.3818C13.1113 51.0889 13.5654 50.6543 13.8779 50.0781C14.2002 49.502 14.3906 48.7842 14.4492 47.9248ZM30.3867 37.3193L24.5859 55H19.9131L27.8379 33.6719H30.8115L30.3867 37.3193ZM35.2061 55L29.3906 37.3193L28.9219 33.6719H31.9248L39.8936 55H35.2061ZM34.9424 47.0605V50.5029H23.6777V47.0605H34.9424ZM55.582 51.5723V55H44.8447V51.5723H55.582ZM46.2656 33.6719V55H41.8711V33.6719H46.2656ZM72.4131 51.5723V55H61.0605V51.5723H72.4131ZM62.4961 33.6719V55H58.1016V33.6719H62.4961ZM70.9336 42.3584V45.6982H61.0605V42.3584H70.9336ZM72.3984 33.6719V37.1143H61.0605V33.6719H72.3984ZM92.335 33.6719V55H87.9404L79.3711 40.7031V55H74.9766V33.6719H79.3711L87.9551 47.9834V33.6719H92.335ZM102.706 55H98.0625L98.0918 51.5723H102.706C103.858 51.5723 104.83 51.3135 105.621 50.7959C106.412 50.2686 107.008 49.502 107.408 48.4961C107.818 47.4902 108.023 46.2744 108.023 44.8486V43.8086C108.023 42.7148 107.906 41.7529 107.672 40.9229C107.447 40.0928 107.11 39.3945 106.661 38.8281C106.212 38.2617 105.66 37.8369 105.006 37.5537C104.352 37.2607 103.6 37.1143 102.75 37.1143H97.9746V33.6719H102.75C104.176 33.6719 105.479 33.916 106.661 34.4043C107.853 34.8828 108.883 35.5713 109.752 36.4697C110.621 37.3682 111.29 38.4424 111.759 39.6924C112.237 40.9326 112.477 42.3145 112.477 43.8379V44.8486C112.477 46.3623 112.237 47.7441 111.759 48.9941C111.29 50.2441 110.621 51.3184 109.752 52.2168C108.893 53.1055 107.862 53.7939 106.661 54.2822C105.47 54.7607 104.151 55 102.706 55ZM100.553 33.6719V55H96.1582V33.6719H100.553ZM124.02 37.3193L118.219 55H113.546L121.471 33.6719H124.444L124.02 37.3193ZM128.839 55L123.023 37.3193L122.555 33.6719H125.558L133.526 55H128.839ZM128.575 47.0605V50.5029H117.311V47.0605H128.575ZM135.504 33.6719H143.458C145.089 33.6719 146.49 33.916 147.662 34.4043C148.844 34.8926 149.752 35.6152 150.387 36.5723C151.021 37.5293 151.339 38.7061 151.339 40.1025C151.339 41.2451 151.144 42.2266 150.753 43.0469C150.372 43.8574 149.83 44.5361 149.127 45.083C148.434 45.6201 147.618 46.0498 146.681 46.3721L145.289 47.1045H138.375L138.346 43.6768H143.487C144.259 43.6768 144.898 43.54 145.406 43.2666C145.914 42.9932 146.295 42.6123 146.549 42.124C146.812 41.6357 146.944 41.0693 146.944 40.4248C146.944 39.7412 146.817 39.1504 146.563 38.6523C146.31 38.1543 145.924 37.7734 145.406 37.5098C144.889 37.2461 144.239 37.1143 143.458 37.1143H139.898V55H135.504V33.6719ZM147.428 55L142.564 45.4932L147.208 45.4639L152.13 54.7949V55H147.428Z" fill="url(#paint0_linear_122_251)"/>
<defs>
<linearGradient id="paint0_linear_122_251" x1="76.5" y1="26" x2="76.5" y2="64" gradientUnits="userSpaceOnUse">
<stop stop-color="white"/>
<stop offset="1" stop-color="#D9D9D9" stop-opacity="0.8"/>
</linearGradient>
</defs>
</svg>
