<svg width="50" height="51" viewBox="0 0 50 51" fill="none" xmlns="http://www.w3.org/2000/svg">
<g clip-path="url(#clip0_402_173)">
<path d="M25 50.8182C38.8071 50.8182 50 39.6253 50 25.8182C50 12.0111 38.8071 0.818176 25 0.818176C11.1929 0.818176 0 12.0111 0 25.8182C0 39.6253 11.1929 50.8182 25 50.8182Z" fill="#F0F0F0"/>
<path d="M5.16794 10.5977C3.20417 13.1526 1.72341 16.0975 0.861206 19.2966H13.8669L5.16794 10.5977Z" fill="#0052B4"/>
<path d="M49.1388 19.2965C48.2766 16.0975 46.7957 13.1527 44.832 10.5977L36.1333 19.2965H49.1388Z" fill="#0052B4"/>
<path d="M0.861206 32.34C1.72351 35.5391 3.20427 38.4839 5.16794 41.0388L13.8666 32.34H0.861206Z" fill="#0052B4"/>
<path d="M40.2204 5.98622C37.6655 4.02245 34.7207 2.54169 31.5216 1.67938V14.6849L40.2204 5.98622Z" fill="#0052B4"/>
<path d="M9.77942 45.6501C12.3344 47.6139 15.2792 49.0946 18.4782 49.9569V36.9515L9.77942 45.6501Z" fill="#0052B4"/>
<path d="M18.4781 1.67938C15.2791 2.54169 12.3343 4.02245 9.77942 5.98612L18.4781 14.6849V1.67938Z" fill="#0052B4"/>
<path d="M31.5217 49.9569C34.7208 49.0946 37.6656 47.6139 40.2205 45.6502L31.5217 36.9515V49.9569Z" fill="#0052B4"/>
<path d="M36.1333 32.34L44.832 41.0389C46.7957 38.484 48.2766 35.5391 49.1388 32.34H36.1333Z" fill="#0052B4"/>
<path d="M49.7884 22.5573H28.261H28.2609V1.0298C27.1935 0.890833 26.1052 0.818176 25 0.818176C23.8946 0.818176 22.8065 0.890833 21.7392 1.0298V22.5571V22.5572H0.211621C0.0726563 23.6247 0 24.713 0 25.8182C0 26.9235 0.0726563 28.0116 0.211621 29.079H21.739H21.7391V50.6066C22.8065 50.7455 23.8946 50.8182 25 50.8182C26.1052 50.8182 27.1935 50.7456 28.2608 50.6066V29.0792V29.0791H49.7884C49.9273 28.0116 50 26.9235 50 25.8182C50 24.713 49.9273 23.6247 49.7884 22.5573V22.5573Z" fill="#D80027"/>
<path d="M31.5217 32.3401L42.6776 43.4959C43.1907 42.983 43.6801 42.4468 44.1471 41.8909L34.5961 32.34H31.5217V32.3401Z" fill="#D80027"/>
<path d="M18.4782 32.34H18.478L7.32227 43.4958C7.83516 44.0089 8.37139 44.4983 8.92725 44.9653L18.4782 35.4141V32.34Z" fill="#D80027"/>
<path d="M18.4782 19.2966V19.2964L7.32231 8.14044C6.80923 8.65333 6.31978 9.18956 5.85278 9.74542L15.4039 19.2965H18.4782V19.2966Z" fill="#D80027"/>
<path d="M31.5217 19.2966L42.6777 8.14052C42.1648 7.62743 41.6286 7.13798 41.0727 6.67108L31.5217 16.2222V19.2966Z" fill="#D80027"/>
</g>
<defs>
<clipPath id="clip0_402_173">
<rect width="50" height="50" fill="white" transform="translate(0 0.818176)"/>
</clipPath>
</defs>
</svg>
