<svg width="21" height="25" viewBox="0 0 21 25" fill="none" xmlns="http://www.w3.org/2000/svg">
<path d="M17.0389 13.1234L17.0389 13.1236C17.0583 15.1963 17.9813 16.5946 18.9022 17.465C19.3589 17.8967 19.8146 18.1989 20.1595 18.3949C20.1839 18.4088 20.2078 18.4222 20.2312 18.435C20.0026 19.0534 19.5369 20.1509 18.7652 21.2711L18.7652 21.2711C18.2412 22.0318 17.7502 22.7248 17.1986 23.2371C16.6595 23.7377 16.1074 24.0229 15.4629 24.0347C14.785 24.0471 14.3477 23.8593 13.776 23.6138L13.7589 23.6065C13.16 23.3494 12.4544 23.0542 11.3717 23.0542C10.2976 23.0542 9.58279 23.3283 8.97098 23.5853C8.93304 23.6012 8.89575 23.617 8.85901 23.6325C8.31339 23.8627 7.88955 24.0415 7.27511 24.0655C6.69509 24.0871 6.13027 23.8036 5.541 23.255C4.95026 22.705 4.41264 21.9617 3.88678 21.2074C2.87147 19.7492 1.96477 17.6683 1.57966 15.5022C1.19367 13.3312 1.34427 11.1536 2.3392 9.43757C3.3239 7.73989 5.07309 6.68128 6.95137 6.65418L6.95419 6.65413C7.62287 6.64146 8.30163 6.86581 9.00202 7.13713C9.08762 7.17028 9.175 7.20471 9.2631 7.23942C9.51685 7.3394 9.77645 7.44169 10.0159 7.52248C10.338 7.63113 10.6951 7.72719 11.045 7.72719C11.4072 7.72719 11.7951 7.60938 12.1396 7.48672C12.3279 7.41967 12.5531 7.33163 12.7797 7.24308C12.9523 7.1756 13.1257 7.10782 13.2842 7.04879C14.0942 6.747 14.9241 6.5098 15.741 6.59202L15.7593 6.59387L15.7777 6.59463C16.4498 6.62241 18.1725 6.84547 19.4519 8.28391C19.1724 8.50285 18.8226 8.81327 18.4766 9.21924C17.7462 10.0763 17.0231 11.3733 17.0389 13.1234ZM14.0552 3.54288L14.0551 3.54302C13.4001 4.331 12.4174 4.93328 11.4456 5.0535C11.4966 4.0365 12.0175 2.9939 12.6377 2.28159L12.6402 2.2788C13.2867 1.52732 14.2993 0.935742 15.2228 0.715357C15.1614 1.74522 14.7047 2.76188 14.0552 3.54288Z" stroke="white" stroke-opacity="0.5" stroke-width="1.24942"/>
</svg>
